<?xml version="1.0" standalone="no"?>
<!DOCTYPE svg PUBLIC "-//W3C//DTD SVG 20010904//EN"
 "http://www.w3.org/TR/2001/REC-SVG-20010904/DTD/svg10.dtd">
<svg version="1.0" xmlns="http://www.w3.org/2000/svg"
 width="1024.000000pt" height="1024.000000pt" viewBox="0 0 1024.000000 1024.000000"
 preserveAspectRatio="xMidYMid meet">

<g transform="translate(0.000000,1024.000000) scale(0.100000,-0.100000)"
fill="#000000" stroke="none">
<path d="M7038 8110 c-245 -19 -475 -64 -699 -136 -1114 -359 -1901 -1298
-2066 -2464 -25 -177 -25 -615 0 -785 91 -613 322 -1125 710 -1574 43 -50 84
-91 90 -91 7 0 239 227 516 504 470 470 503 506 490 524 -8 10 -44 59 -81 108
-215 283 -330 682 -299 1034 49 567 366 1033 877 1288 88 44 282 107 399 128
149 28 432 26 575 -5 261 -55 497 -167 684 -323 l60 -49 510 510 510 510 -20
22 c-34 39 -207 179 -304 249 -408 289 -883 473 -1377 534 -155 19 -436 27
-575 16z"/>
<path d="M2745 8104 c-530 -54 -992 -217 -1415 -499 -132 -88 -259 -186 -348
-270 l-53 -50 509 -509 510 -509 68 55 c206 165 452 278 704 324 146 28 421
25 567 -4 275 -55 547 -189 736 -362 38 -35 72 -59 76 -54 11 12 720 1228 727
1248 10 27 -273 214 -488 322 -198 100 -466 195 -688 244 -215 48 -344 62
-610 65 -140 2 -273 1 -295 -1z"/>
<path d="M745 7094 c-795 -905 -970 -2210 -441 -3291 120 -245 255 -449 434
-657 l85 -98 508 508 c280 280 509 513 509 517 0 5 -20 32 -44 60 -195 231
-315 531 -347 866 -36 383 99 808 354 1114 l40 49 -510 510 -510 510 -78 -88z"/>
<path d="M8909 6673 l-507 -508 50 -60 c382 -462 460 -1114 198 -1661 -274
-570 -887 -925 -1512 -874 -326 27 -598 133 -849 330 l-86 68 -513 -513 -512
-512 52 -49 c203 -190 514 -392 793 -514 976 -428 2090 -315 2957 300 269 192
543 470 732 745 473 688 638 1550 453 2365 -110 482 -338 932 -664 1308 -40
45 -75 82 -79 82 -4 0 -235 -228 -513 -507z"/>
<path d="M4022 3950 c-292 -272 -759 -424 -1167 -381 -317 34 -619 159 -842
347 -28 24 -55 44 -60 44 -4 0 -237 -229 -517 -509 l-508 -508 99 -84 c566
-483 1236 -732 1966 -730 281 0 487 25 748 91 373 94 779 292 1068 519 l24 19
-368 626 c-202 344 -370 626 -374 626 -3 -1 -34 -27 -69 -60z"/>
</g>
</svg>
