<?xml version="1.0" standalone="no"?>
<!DOCTYPE svg PUBLIC "-//W3C//DTD SVG 20010904//EN"
 "http://www.w3.org/TR/2001/REC-SVG-20010904/DTD/svg10.dtd">
<svg version="1.0" xmlns="http://www.w3.org/2000/svg"
 width="866.000000pt" height="650.000000pt" viewBox="0 0 866.000000 650.000000"
 preserveAspectRatio="xMidYMid meet">

<g transform="translate(0.000000,650.000000) scale(0.100000,-0.100000)"
fill="#000000" stroke="none">
<path d="M2940 6047 c-192 -110 -359 -237 -524 -397 -162 -157 -262 -277 -381
-455 -389 -582 -539 -1279 -424 -1975 142 -855 686 -1596 1462 -1991 76 -38
190 -90 253 -115 116 -44 305 -104 330 -104 12 0 14 96 14 584 l0 584 73 -22
c39 -13 100 -28 135 -36 l62 -13 0 -697 c0 -383 -2 -699 -5 -702 -13 -12 -276
40 -443 88 -252 73 -537 201 -753 336 -1181 745 -1691 2176 -1249 3502 44 129
48 162 25 206 -30 59 -127 80 -179 39 -35 -27 -55 -70 -99 -204 -113 -347
-160 -643 -160 -1005 1 -349 44 -639 144 -963 301 -978 1083 -1779 2055 -2106
277 -93 520 -141 832 -166 l82 -7 0 823 0 824 135 0 135 0 0 -824 0 -824 88 7
c808 64 1511 385 2073 945 540 538 859 1211 940 1981 15 146 15 450 0 605 -25
253 -70 470 -148 713 -49 154 -73 194 -128 212 -98 32 -195 -71 -152 -163 8
-17 31 -84 50 -147 110 -355 143 -598 134 -984 -5 -256 -17 -355 -67 -583
-265 -1196 -1270 -2126 -2483 -2299 l-47 -6 2 702 3 702 110 29 c61 16 120 31
133 35 l22 6 0 -587 c0 -523 2 -587 15 -581 9 3 41 12 73 20 192 50 523 193
644 277 14 11 29 19 33 19 12 0 208 138 295 207 376 301 677 718 849 1178 227
609 229 1284 6 1900 -119 327 -328 670 -567 929 -158 171 -413 374 -634 504
-78 46 -126 54 -174 26 -60 -36 -79 -121 -39 -179 12 -17 58 -52 104 -78 114
-65 265 -176 391 -287 438 -388 719 -913 811 -1510 22 -143 25 -527 5 -670
-75 -535 -308 -1022 -672 -1404 -180 -187 -373 -336 -605 -464 -103 -57 -266
-132 -286 -132 -5 0 -9 213 -9 519 l0 518 64 32 c124 61 205 181 214 317 9
146 -44 268 -152 346 -37 27 -40 32 -37 71 4 77 50 284 82 372 32 88 106 211
153 255 15 14 71 54 124 90 129 86 142 111 142 265 0 159 -24 257 -103 430
-94 203 -270 494 -432 710 -276 370 -576 663 -775 759 -83 40 -87 41 -191 41
l-106 0 -94 -47 c-110 -56 -203 -128 -351 -274 -381 -373 -775 -960 -915
-1362 -25 -71 -27 -90 -28 -237 0 -194 0 -194 145 -290 108 -71 172 -139 221
-237 56 -112 97 -249 119 -403 6 -44 13 -87 14 -96 2 -10 -15 -31 -45 -54 -95
-72 -158 -220 -144 -338 3 -33 15 -84 27 -114 27 -72 118 -170 192 -206 l56
-28 0 -524 0 -523 -27 12 c-16 8 -66 31 -113 52 -107 48 -323 176 -415 244
-129 97 -149 115 -263 225 -418 404 -669 899 -748 1477 -24 176 -22 489 5 667
59 393 193 738 410 1056 95 139 129 181 250 310 166 175 341 312 603 470 75
45 86 139 23 202 -49 49 -97 46 -195 -10z m709 -3028 c93 -41 168 -166 157
-261 -17 -149 -129 -253 -271 -252 -74 1 -120 20 -179 74 -62 57 -86 111 -86
191 1 201 195 328 379 248z m1581 -5 c171 -86 202 -310 60 -437 -74 -68 -156
-88 -244 -63 -73 21 -132 69 -170 136 -27 47 -31 65 -31 125 0 83 18 123 78
184 49 50 83 69 140 80 56 11 113 3 167 -25z"/>
</g>
</svg>
