<?xml version="1.0" standalone="no"?>
<!DOCTYPE svg PUBLIC "-//W3C//DTD SVG 20010904//EN"
 "http://www.w3.org/TR/2001/REC-SVG-20010904/DTD/svg10.dtd">
<svg version="1.0" xmlns="http://www.w3.org/2000/svg"
 width="1199.000000pt" height="799.000000pt" viewBox="0 0 1199.000000 799.000000"
 preserveAspectRatio="xMidYMid meet">

<g transform="translate(0.000000,799.000000) scale(0.100000,-0.100000)"
fill="#000000" stroke="none">
<path d="M3251 7639 c-763 -63 -1459 -419 -1906 -975 -289 -358 -475 -768
-559 -1225 -52 -287 -51 -238 -51 -2134 l0 -1770 23 -103 c49 -223 106 -346
238 -518 150 -194 364 -341 598 -408 181 -53 108 -51 1846 -51 1547 0 1629 1
1710 19 244 53 431 150 599 311 188 179 306 393 358 650 17 85 18 189 18 1890
0 1901 1 1849 -46 2110 -154 851 -673 1546 -1434 1920 -268 132 -476 199 -775
249 -253 43 -413 52 -619 35z m1482 -2409 c94 -29 149 -84 178 -180 37 -123
12 -238 -70 -318 -85 -83 19 -77 -1371 -80 -1282 -3 -1311 -2 -1390 38 -41 21
-92 73 -113 115 -70 141 -18 337 108 403 80 41 59 41 1351 41 1218 1 1243 1
1307 -19z"/>
<path d="M5411 7588 c529 -387 950 -966 1157 -1594 48 -145 94 -332 116 -469
9 -55 21 -134 28 -175 16 -103 24 -3691 8 -3860 -35 -368 -163 -694 -377 -962
-29 -37 -53 -70 -53 -73 0 -3 944 -4 2098 -2 l2097 3 85 21 c264 66 452 172
625 354 162 170 264 367 312 604 17 85 18 189 18 1890 0 1901 1 1849 -46 2110
-133 735 -535 1350 -1149 1760 -128 86 -405 225 -551 279 -213 78 -523 144
-782 165 -85 7 -722 11 -1899 11 l-1772 0 85 -62z m4722 -2358 c93 -29 149
-84 177 -177 20 -67 21 -84 18 -728 -3 -651 -3 -661 -25 -707 -28 -60 -92
-122 -151 -144 -41 -16 -90 -19 -382 -22 -415 -4 -465 3 -548 82 -87 81 -92
118 -92 661 l0 455 -455 0 c-543 0 -580 5 -661 92 -127 134 -94 385 61 466 79
41 74 41 1051 41 917 1 944 0 1007 -19z"/>
</g>
</svg>
