<?xml version="1.0" standalone="no"?>
<!DOCTYPE svg PUBLIC "-//W3C//DTD SVG 20010904//EN"
 "http://www.w3.org/TR/2001/REC-SVG-20010904/DTD/svg10.dtd">
<svg version="1.0" xmlns="http://www.w3.org/2000/svg"
 width="200.000000pt" height="200.000000pt" viewBox="0 0 200.000000 200.000000"
 preserveAspectRatio="xMidYMid meet">

<g transform="translate(0.000000,200.000000) scale(0.100000,-0.100000)"
fill="#000000" stroke="none">
<path d="M795 1871 c-181 -49 -305 -120 -430 -246 -105 -106 -169 -211 -217
-355 -27 -83 -32 -112 -36 -233 -6 -204 25 -333 121 -496 67 -114 202 -249
312 -312 285 -164 625 -164 910 0 110 63 246 199 311 311 92 156 124 275 124
461 0 253 -84 453 -265 634 -106 105 -198 161 -348 214 -97 34 -109 35 -257
38 -127 2 -168 0 -225 -16z m425 -32 c297 -76 540 -319 621 -620 33 -120 33
-318 0 -439 -81 -302 -318 -539 -621 -622 -121 -33 -319 -33 -440 0 -303 82
-540 320 -621 622 -33 121 -33 319 0 439 81 301 328 548 621 619 119 29 132
31 250 27 63 -3 139 -13 190 -26z"/>
<path d="M658 1070 c-77 -13 -224 -64 -357 -123 -68 -31 -125 -58 -127 -60 -8
-8 24 -141 44 -187 19 -40 21 -42 21 -17 l1 27 100 0 100 0 0 70 0 70 95 0
c78 0 95 3 95 15 0 12 19 15 110 15 l110 0 0 -55 0 -55 95 0 95 0 0 -80 0 -80
100 0 100 0 0 -50 0 -50 95 0 c87 0 95 -2 95 -19 0 -18 9 -20 103 -23 l102 -4
33 36 c37 39 136 231 124 241 -4 3 -38 14 -77 24 -118 31 -248 82 -530 207
-212 94 -372 124 -527 98z"/>
<path d="M650 546 l0 -313 54 -21 c30 -12 71 -24 90 -28 l36 -6 0 341 0 341
-90 0 -90 0 0 -314z"/>
<path d="M460 590 l0 -240 76 -50 c42 -28 80 -50 85 -50 5 0 9 131 9 290 l0
290 -85 0 -85 0 0 -240z"/>
<path d="M850 461 l0 -288 46 -7 c26 -3 64 -6 85 -6 l39 0 0 295 0 295 -85 0
-85 0 0 -289z"/>
<path d="M260 643 c0 -39 7 -59 38 -104 37 -56 92 -121 125 -148 16 -13 17 -3
17 143 l0 156 -90 0 -90 0 0 -47z"/>
<path d="M1040 379 l0 -220 54 6 c29 4 68 10 87 14 l34 7 3 207 2 207 -90 0
-90 0 0 -221z"/>
<path d="M1240 340 l0 -150 28 11 c15 6 53 22 85 36 l57 26 0 113 0 114 -85 0
-85 0 0 -150z"/>
<path d="M1430 364 l0 -86 28 17 c52 34 63 43 107 84 67 63 62 71 -45 71 l-90
0 0 -86z"/>
</g>
</svg>
