<?xml version="1.0" standalone="no"?>
<!DOCTYPE svg PUBLIC "-//W3C//DTD SVG 20010904//EN"
 "http://www.w3.org/TR/2001/REC-SVG-20010904/DTD/svg10.dtd">
<svg version="1.0" xmlns="http://www.w3.org/2000/svg"
 width="1105.000000pt" height="879.000000pt" viewBox="0 0 1105.000000 879.000000"
 preserveAspectRatio="xMidYMid meet">

<g transform="translate(0.000000,879.000000) scale(0.100000,-0.100000)"
fill="#000000" stroke="none">
<path d="M3815 8579 c-483 -38 -978 -182 -1371 -401 -254 -141 -465 -301 -701
-531 -584 -570 -889 -1194 -989 -2022 -21 -179 -32 -1076 -15 -1208 40 -299
225 -517 508 -599 l78 -23 2705 0 c2561 0 2708 1 2770 18 73 20 198 76 238
107 97 75 194 197 235 295 53 127 52 119 52 730 0 606 -3 653 -56 946 -128
713 -480 1339 -1036 1841 -163 148 -236 205 -398 313 -477 318 -992 488 -1615
535 -152 11 -246 11 -405 -1z"/>
<path d="M9005 7079 c-240 -33 -441 -116 -619 -258 -185 -147 -336 -375 -402
-606 -46 -159 -46 -161 -54 -1020 -7 -847 -8 -857 -50 -1015 -114 -431 -448
-783 -873 -919 -221 -71 74 -64 -3337 -71 -2538 -4 -3082 -8 -3115 -19 -162
-54 -296 -167 -360 -302 -87 -183 -82 -406 13 -581 67 -124 188 -226 321 -270
62 -21 88 -22 433 -26 l367 -4 4 -586 c3 -422 7 -601 16 -637 7 -27 33 -91 57
-142 73 -152 246 -319 393 -379 131 -52 171 -55 766 -52 485 3 557 6 610 21
261 75 488 314 539 569 13 65 16 169 16 643 l0 565 299 0 300 0 4 -587 c3
-423 7 -602 16 -638 7 -27 33 -91 57 -142 73 -152 246 -319 393 -379 131 -52
171 -55 766 -52 485 3 557 6 610 21 261 75 488 314 539 569 13 65 16 169 16
642 l0 565 58 6 c413 45 728 141 1030 315 544 311 944 785 1163 1375 l37 100
433 6 c467 7 494 9 669 69 376 129 683 468 773 855 29 123 37 221 37 444 0
227 -14 378 -49 538 -156 715 -743 1259 -1476 1367 -135 20 -315 27 -400 15z
m515 -1505 c107 -32 163 -87 194 -193 41 -138 -8 -279 -119 -342 -127 -73
-290 -55 -381 43 -127 134 -94 384 61 466 83 43 160 51 245 26z"/>
</g>
</svg>
